<svg width="25" height="25" viewBox="0 0 25 25" fill="none" xmlns="http://www.w3.org/2000/svg">
<path d="M3 21.7449L8.54927 19.6106C8.90421 19.4741 9.08168 19.4058 9.24772 19.3167C9.3952 19.2375 9.5358 19.1462 9.66804 19.0435C9.81692 18.928 9.95137 18.7936 10.2203 18.5247L21.5 7.24493C22.6046 6.14036 22.6046 4.3495 21.5 3.24493C20.3955 2.14036 18.6046 2.14036 17.5 3.24493L6.22028 14.5247C5.95138 14.7936 5.81692 14.928 5.70139 15.0769C5.59877 15.2091 5.5074 15.3497 5.42823 15.4972C5.33911 15.6633 5.27085 15.8407 5.13433 16.1957L3 21.7449ZM3 21.7449L5.05812 16.3939C5.2054 16.011 5.27903 15.8195 5.40534 15.7318C5.51572 15.6552 5.6523 15.6262 5.7843 15.6514C5.93533 15.6802 6.08038 15.8253 6.37048 16.1154L8.62957 18.3745C8.91967 18.6646 9.06472 18.8096 9.09356 18.9607C9.11877 19.0927 9.08979 19.2292 9.01314 19.3396C8.92545 19.4659 8.73399 19.5396 8.35107 19.6868L3 21.7449Z" stroke="white" stroke-width="2" stroke-linecap="round" stroke-linejoin="round"/>
</svg>
