<svg width="20" height="20" viewBox="0 0 20 20" fill="none" xmlns="http://www.w3.org/2000/svg">
<path d="M3.48512 8.4306L6.03952 6.8493C6.36847 6.64567 6.64567 6.36847 6.8493 6.03952L8.7246 3.01019C9.31102 2.0629 10.689 2.0629 11.2754 3.01019L13.1507 6.03952C13.3543 6.36847 13.6315 6.64567 13.9605 6.8493L16.9898 8.7246C17.9371 9.31102 17.9371 10.689 16.9898 11.2754L13.9605 13.1507C13.6315 13.3543 13.3543 13.6315 13.1507 13.9605L11.5694 16.5149C10.9448 17.5239 9.33404 17.4848 8.6773 16.3857C8.05514 15.3444 7.30784 14.2478 6.53002 13.47C5.75221 12.6922 4.6556 11.9449 3.61432 11.3227C2.51516 10.666 2.47612 9.05521 3.48512 8.4306Z" stroke="black"/>
</svg>
