<svg width="20" height="20" viewBox="0 0 20 20" fill="none" xmlns="http://www.w3.org/2000/svg">
<path d="M8.29947 2.74701C9.08136 1.48395 10.9186 1.48396 11.7005 2.74701L13.5758 5.77635C13.7387 6.0395 13.9605 6.26126 14.2237 6.42417L17.253 8.29947C18.516 9.08136 18.516 10.9186 17.253 11.7005L14.2237 13.5758C13.9605 13.7387 13.7387 13.9605 13.5758 14.2237L11.7005 17.253C10.9186 18.516 9.08136 18.516 8.29947 17.253L6.42417 14.2237C6.26126 13.9605 6.0395 13.7387 5.77635 13.5758L2.74701 11.7005C1.48395 10.9186 1.48396 9.08136 2.74701 8.29947L5.77635 6.42417C6.0395 6.26126 6.26126 6.0395 6.42417 5.77635L8.29947 2.74701Z" fill="black"/>
</svg>
