<svg width="20" height="21" viewBox="0 0 20 21" fill="none" xmlns="http://www.w3.org/2000/svg">
<path d="M8.29947 3.24701C9.08136 1.98395 10.9186 1.98396 11.7005 3.24701L13.5758 6.27635C13.7387 6.5395 13.9605 6.76126 14.2237 6.92417L17.253 8.79947C18.516 9.58136 18.516 11.4186 17.253 12.2005L14.2237 14.0758C13.9605 14.2387 13.7387 14.4605 13.5758 14.7237L11.7005 17.753C10.9186 19.016 9.08136 19.016 8.29947 17.753L6.42417 14.7237C6.26126 14.4605 6.0395 14.2387 5.77635 14.0758L2.74701 12.2005C1.48395 11.4186 1.48396 9.58136 2.74701 8.79947L5.77635 6.92417C6.0395 6.76126 6.26126 6.5395 6.42417 6.27635L8.29947 3.24701Z" fill="black"/>
</svg>
